<svg width="253" height="28" viewBox="0 0 253 28" fill="none" xmlns="http://www.w3.org/2000/svg">
<path d="M0.0400002 28V0.559998H15.72C17.16 0.559998 18.4533 0.839998 19.6 1.4C20.7733 1.96 21.6933 2.74667 22.36 3.76C23.0267 4.77333 23.36 5.96 23.36 7.32C23.36 8.41333 23.16 9.38667 22.76 10.24C22.36 11.0933 21.8133 11.8 21.12 12.36C20.4533 12.92 19.6933 13.3333 18.84 13.6V13.76C19.8533 13.9733 20.7467 14.3733 21.52 14.96C22.32 15.5467 22.9467 16.3067 23.4 17.24C23.88 18.1467 24.12 19.2267 24.12 20.48C24.12 22.1333 23.7333 23.52 22.96 24.64C22.2133 25.76 21.2133 26.6 19.96 27.16C18.7067 27.72 17.3067 28 15.76 28H0.0400002ZM6 23.12H14.6C15.5867 23.12 16.3867 22.84 17 22.28C17.64 21.72 17.96 20.8533 17.96 19.68C17.96 18.9867 17.8267 18.3867 17.56 17.88C17.2933 17.3733 16.8933 16.9867 16.36 16.72C15.8267 16.4267 15.1467 16.28 14.32 16.28H6V23.12ZM6 11.64H13.92C14.64 11.64 15.24 11.5067 15.72 11.24C16.2267 10.9467 16.6 10.5733 16.84 10.12C17.1067 9.64 17.24 9.09333 17.24 8.48C17.24 7.44 16.9467 6.65333 16.36 6.12C15.8 5.58667 15.0533 5.32 14.12 5.32H6V11.64ZM46.1072 28L56.6672 0.559998H64.0272L74.5872 28H68.1472L66.1872 22.6H54.2272L52.2672 28H46.1072ZM55.9472 17.8H64.4672L62.0272 11.04C61.9205 10.7467 61.7872 10.4 61.6272 10C61.4939 9.57333 61.3472 9.10667 61.1872 8.6C61.0272 8.09333 60.8672 7.6 60.7072 7.12C60.5739 6.61333 60.4405 6.16 60.3072 5.76H60.0672C59.9339 6.26667 59.7605 6.86667 59.5472 7.56C59.3339 8.22667 59.1205 8.88 58.9072 9.52C58.6939 10.1333 58.5205 10.64 58.3872 11.04L55.9472 17.8ZM97.8525 28V0.559998H103.813V11.44H115.973V0.559998H121.933V28H115.973V16.48H103.813V28H97.8525ZM145.209 28L155.769 0.559998H163.129L173.689 28H167.249L165.289 22.6H153.329L151.369 28H145.209ZM155.049 17.8H163.569L161.129 11.04C161.022 10.7467 160.889 10.4 160.729 10C160.595 9.57333 160.449 9.10667 160.289 8.6C160.129 8.09333 159.969 7.6 159.809 7.12C159.675 6.61333 159.542 6.16 159.409 5.76H159.169C159.035 6.26667 158.862 6.86667 158.649 7.56C158.435 8.22667 158.222 8.88 158.009 9.52C157.795 10.1333 157.622 10.64 157.489 11.04L155.049 17.8ZM196.954 28V0.559998H211.994C214.021 0.559998 215.701 0.919998 217.034 1.64C218.394 2.36 219.407 3.37333 220.074 4.68C220.741 5.96 221.074 7.44 221.074 9.12C221.074 10.9067 220.674 12.4933 219.874 13.88C219.074 15.24 217.914 16.28 216.394 17L221.994 28H215.394L210.554 18H202.914V28H196.954ZM202.914 13.28H211.194C212.394 13.28 213.327 12.92 213.994 12.2C214.661 11.4533 214.994 10.4533 214.994 9.2C214.994 8.4 214.847 7.72 214.554 7.16C214.261 6.57333 213.834 6.13333 213.274 5.84C212.714 5.54667 212.021 5.4 211.194 5.4H202.914V13.28ZM246.173 28V0.559998H252.133V28H246.173Z" fill="white"/>
</svg>
