<svg width="270" height="104" viewBox="0 0 270 104" fill="none" xmlns="http://www.w3.org/2000/svg">
<path d="M123.536 72.3451H115.266V31.2551H123.536V72.3451Z" fill="white"/>
<path d="M110.665 72.3451H101.28C97.2272 66.4026 91.3972 59.4626 85.4547 53.2426C87.3422 53.6876 89.1747 53.7976 91.0622 53.7976C95.7822 53.7976 98.6147 50.6326 98.6147 45.8576C98.6147 41.0826 95.6172 37.9151 91.0622 37.9151H83.2322V72.3426H75.1797V31.2551H91.9497C100.945 31.2551 106.997 36.7526 106.997 45.0251C106.997 51.3001 103.61 55.6851 99.0022 57.6301C102.612 61.5726 106.832 66.8476 110.662 72.3451H110.665Z" fill="white"/>
<path d="M162.012 45.0251C162.012 53.6326 156.07 59.3501 147.188 59.3501H138.803V72.3426H130.75V31.2551H147.52C156.183 31.2551 162.012 36.7526 162.012 45.0251ZM153.628 45.3026C153.628 40.8601 150.908 37.9176 146.633 37.9176H138.803V52.6326H146.633C150.908 52.6326 153.628 49.7451 153.628 45.3026Z" fill="white"/>
<path d="M197.368 45.0251C197.368 53.6326 191.425 59.3501 182.543 59.3501H174.158V72.3426H166.105V31.2551H182.875C191.538 31.2551 197.368 36.7526 197.368 45.0251ZM188.983 45.3026C188.983 40.8601 186.263 37.9176 181.988 37.9176H174.158V52.6326H181.988C186.263 52.6326 188.983 49.7451 188.983 45.3026Z" fill="white"/>
<path d="M214.629 55.4625L212.629 54.9625C205.354 53.13 200.469 51.075 200.469 43.3025C200.469 35.53 206.134 30.6975 215.684 30.6975C219.959 30.6975 224.734 31.5875 228.566 33.1975V39.25C224.401 37.8625 220.404 37.195 217.516 37.195C211.464 37.195 208.631 38.915 208.631 41.915C208.631 45.135 212.074 45.9125 216.349 47.025L218.291 47.4675C225.399 49.245 230.839 52.2975 230.839 60.295C230.839 68.2925 225.231 72.9 215.846 72.9C211.461 72.9 205.686 71.9 202.076 69.9575V63.85C206.186 65.6825 210.626 66.405 213.681 66.405C219.844 66.405 222.731 64.5175 222.731 61.3525C222.731 57.965 219.234 56.6325 214.624 55.465L214.629 55.4625Z" fill="white"/>
<path d="M68.1292 72.5822V48.5772H51.3092V55.2422H60.0817V65.0147C57.7492 65.7922 55.2517 66.2372 52.9742 66.2372C44.3667 66.2372 39.5917 60.4622 39.5917 52.0222C39.5917 43.0272 45.1992 37.3647 54.7492 37.3647C57.7467 37.3647 62.7442 38.1422 65.6317 39.4197V33.1997C62.0217 31.7022 56.6367 30.6997 52.2492 30.6997C39.6992 30.6997 31.2617 39.0297 31.2617 52.0222C31.2617 65.0147 38.9792 72.9022 51.0292 72.9022C57.5392 72.9022 61.2292 70.9072 65.2067 69.0047C65.4992 69.2322 67.9092 72.4022 68.1317 72.6247C68.1317 72.6197 68.1317 72.6147 68.1317 72.6097V72.5822H68.1292Z" fill="white"/>
<path d="M238.746 36.3926C238.746 38.5826 237.251 40.0401 235.023 40.0401C232.796 40.0401 231.301 38.5801 231.301 36.3926C231.301 34.2051 232.798 32.7451 235.023 32.7451C237.248 32.7451 238.746 34.2051 238.746 36.3926ZM238.241 36.3926C238.241 34.4476 236.948 33.1576 235.023 33.1576C233.098 33.1576 231.806 34.4476 231.806 36.3926C231.806 38.3376 233.096 39.6301 235.023 39.6301C236.951 39.6301 238.241 38.3401 238.241 36.3926ZM236.761 38.4126H236.218C235.658 37.7951 235.003 37.1226 234.348 36.5426H235.078C235.638 36.5426 235.996 36.1676 235.996 35.6451C235.996 35.1226 235.621 34.7476 235.078 34.7476H234.086V38.4126H233.636V34.3726H235.133C235.938 34.3726 236.461 34.8776 236.461 35.6251C236.461 36.3726 235.918 36.8601 235.226 36.8601C235.713 37.2901 236.236 37.8326 236.761 38.4126Z" fill="white"/>
</svg>
