<svg width="142" height="45" viewBox="0 0 142 45" fill="none" xmlns="http://www.w3.org/2000/svg">
<g clip-path="url(#clip0_1631_86)">
<path d="M0 4.9C0 4.23333 0.133333 3.6 0.4 3C0.6 2.4 0.933333 1.86667 1.4 1.4C1.86667 0.933333 2.36667 0.6 2.9 0.4C3.5 0.133333 4.13333 0 4.8 0H5.8C7.9 0 9.3 1.1 10.1 2.5L21.7 21.7L33.2 2.5C34.2 0.8 35.6 0 37.5 0H38.5C39.1667 0 39.8 0.133333 40.4 0.4C40.9333 0.6 41.4333 0.933333 41.9 1.4C42.3667 1.86667 42.7333 2.4 43 3C43.2 3.6 43.3 4.23333 43.3 4.9V40.1C43.3 40.7667 43.2 41.4 43 42C42.7333 42.6 42.3667 43.1333 41.9 43.6C41.5 44.0667 41 44.4 40.4 44.6C39.8 44.8667 39.1667 45 38.5 45C35.9 45 33.8 42.8 33.8 40.1V18L25.5 31.2C24.5 32.7 23.3 33.7 21.5 33.7C19.8 33.7 18.6 32.7 17.6 31.2L9.4 18.2V40.2C9.33333 40.8667 9.2 41.5 9 42.1C8.73333 42.7 8.4 43.2 8 43.6C7.53333 44.0667 7 44.4333 6.4 44.7C5.86667 44.9 5.26667 45 4.6 45C4 45 3.43333 44.9 2.9 44.7C2.3 44.4333 1.76667 44.0667 1.3 43.6C0.9 43.2 0.566667 42.7 0.3 42.1C0.1 41.5 0 40.8667 0 40.2L0 4.9Z" fill="#F5F5F5"/>
<path d="M54.6016 4.9C54.6016 3.6 55.1016 2.3 56.0016 1.4C56.8016 0.5 58.1016 0 59.3016 0C60.6016 0 61.8016 0.5 62.7016 1.4C63.6016 2.3 64.1016 3.6 64.1016 4.9V17.9H81.6016V4.9C81.6016 3.6 82.1016 2.3 83.0016 1.4C83.9016 0.5 85.1016 0 86.4016 0C87.6016 0 88.8016 0.5 89.7016 1.4C90.6016 2.3 91.1016 3.6 91.1016 4.9V40.1C91.1016 41.4 90.6016 42.7 89.7016 43.6C88.8016 44.5 87.6016 45 86.4016 45C85.1016 45 83.9016 44.5 83.0016 43.6C82.1016 42.7 81.6016 41.4 81.6016 40.1V26.9H64.1016V40.1C64.1016 41.4 63.6016 42.7 62.7016 43.6C61.8016 44.5 60.6016 45 59.3016 45C58.1016 45 56.8016 44.5 56.0016 43.6C55.1016 42.7 54.6016 41.4 54.6016 40.1V4.9Z" fill="#F5F5F5"/>
<path d="M101.801 22.5V22.4C101.801 10.1 111.101 0 124.401 0C130.901 0 135.301 1.7 138.801 4.4C139.401 4.86667 139.867 5.43333 140.201 6.1C140.534 6.76667 140.701 7.46667 140.701 8.2C140.701 8.8 140.567 9.4 140.301 10C140.101 10.5333 139.767 11.0333 139.301 11.5C138.901 11.9 138.401 12.2333 137.801 12.5C137.201 12.7 136.601 12.8 136.001 12.8C134.701 12.8 133.801 12.3 133.201 11.9C130.501 9.9 127.701 8.8 124.301 8.8C117.001 8.8 111.801 14.8 111.801 22.3V22.4C111.801 29.8 116.901 36 124.301 36C128.301 36 131.001 34.7 133.701 32.6C134.501 31.9 135.501 31.5 136.601 31.5C139.001 31.5 141.001 33.5 141.001 35.9C141.001 36.5667 140.867 37.2 140.601 37.8C140.334 38.4 139.934 38.9 139.401 39.3C135.501 42.7 130.901 44.8 124.001 44.8C111.301 44.8 101.801 34.9 101.801 22.5Z" fill="#F5F5F5"/>
<path d="M141.601 35.6C141.601 34.7 141.301 33.7 140.801 32.9C140.201 32.1 139.401 31.5 138.401 31.1C137.501 30.8 136.501 30.8 135.501 31C134.601 31.3 133.701 31.9 133.101 32.6C132.601 33.1 130.001 35.4 124.601 35.4C118.601 35.4 115.801 32.4 115.701 32.3C115.701 32.3667 115.701 32.4 115.701 32.4C114.901 31.4 113.701 30.9 112.501 30.8C111.301 30.7 110.101 31.1 109.101 31.9C108.201 32.7 107.501 33.8 107.401 35.1C107.301 36.3 107.601 37.5 108.401 38.5C108.401 38.5667 108.401 38.6 108.401 38.6C108.601 38.8667 108.835 39.1 109.101 39.3C110.168 40.3667 111.368 41.2667 112.701 42C116.101 44 120.201 45 124.601 45C128.901 45 133.001 44 136.301 42.1C139.001 40.6 140.301 39 140.601 38.7C141.301 37.8 141.601 36.7 141.601 35.6Z" fill="#FF5733"/>
</g>
<defs>
<clipPath id="clip0_1631_86">
<rect width="142" height="45" fill="white"/>
</clipPath>
</defs>
</svg>
