<svg width="254" height="72" viewBox="0 0 254 72" fill="none" xmlns="http://www.w3.org/2000/svg">
<path d="M1.17188 1.59375L17.2656 18.7188V7.71875C17.2656 6.83333 17.2552 6.0625 17.2344 5.40625C17.2135 4.73958 17.1823 4.16667 17.1406 3.6875C17.099 3.19792 17.0469 2.79167 16.9844 2.46875C16.9323 2.14583 16.875 1.875 16.8125 1.65625V1.59375H19.5938V1.65625C19.5312 1.875 19.474 2.14583 19.4219 2.46875C19.3698 2.79167 19.3229 3.19792 19.2812 3.6875C19.2396 4.16667 19.2083 4.73958 19.1875 5.40625C19.1667 6.0625 19.1562 6.83333 19.1562 7.71875V24.3125H18.6094L2.51562 7.20312V17.8906C2.51562 18.776 2.52604 19.5521 2.54688 20.2188C2.56771 20.875 2.59896 21.4427 2.64062 21.9219C2.68229 22.401 2.72917 22.8021 2.78125 23.125C2.83333 23.4479 2.89062 23.7188 2.95312 23.9375V24H0.171875V23.9375C0.234375 23.7188 0.291667 23.4479 0.34375 23.125C0.40625 22.8021 0.458333 22.401 0.5 21.9219C0.541667 21.4427 0.572917 20.875 0.59375 20.2188C0.614583 19.5521 0.625 18.776 0.625 17.8906V7.71875C0.625 6.83333 0.614583 6.0625 0.59375 5.40625C0.572917 4.73958 0.541667 4.16667 0.5 3.6875C0.458333 3.19792 0.40625 2.79167 0.34375 2.46875C0.291667 2.14583 0.234375 1.875 0.171875 1.65625V1.59375H1.17188ZM22.8125 15.9688C22.8125 14.7917 23.0312 13.7031 23.4688 12.7031C23.9062 11.6927 24.5052 10.8177 25.2656 10.0781C26.0365 9.33854 26.9427 8.76042 27.9844 8.34375C29.026 7.92708 30.1458 7.71875 31.3438 7.71875C32.5208 7.71875 33.625 7.91667 34.6562 8.3125C35.6979 8.69792 36.6042 9.25 37.375 9.96875C38.1458 10.6875 38.75 11.5625 39.1875 12.5938C39.6354 13.625 39.8594 14.7812 39.8594 16.0625C39.8594 17.1354 39.6719 18.1667 39.2969 19.1562C38.9219 20.1458 38.3698 21.0208 37.6406 21.7812C36.9115 22.5417 36.0156 23.151 34.9531 23.6094C33.901 24.0573 32.6875 24.2812 31.3125 24.2812C30.1458 24.2812 29.0469 24.0885 28.0156 23.7031C26.9844 23.3177 26.0833 22.7656 25.3125 22.0469C24.5417 21.3281 23.9323 20.4583 23.4844 19.4375C23.0365 18.4062 22.8125 17.25 22.8125 15.9688ZM31.6719 23.1406C32.4115 23.1406 33.0885 22.9948 33.7031 22.7031C34.3281 22.4115 34.8646 21.9896 35.3125 21.4375C35.7604 20.8854 36.1094 20.2135 36.3594 19.4219C36.6094 18.6302 36.7344 17.7344 36.7344 16.7344C36.7344 15.6094 36.6146 14.5677 36.375 13.6094C36.1354 12.6406 35.776 11.8073 35.2969 11.1094C34.8281 10.401 34.2344 9.84896 33.5156 9.45312C32.7969 9.05729 31.9583 8.85938 31 8.85938C30.2604 8.85938 29.5833 9.00521 28.9688 9.29688C28.3542 9.57812 27.8177 9.98958 27.3594 10.5312C26.9115 11.0729 26.5625 11.7396 26.3125 12.5312C26.0625 13.3125 25.9375 14.2031 25.9375 15.2031C25.9375 16.3281 26.0573 17.375 26.2969 18.3438C26.5469 19.3125 26.9115 20.1562 27.3906 20.875C27.8698 21.5833 28.4635 22.1406 29.1719 22.5469C29.8906 22.9427 30.724 23.1406 31.6719 23.1406ZM43.375 14.1094C43.375 13.224 43.3594 12.4531 43.3281 11.7969C43.3073 11.1302 43.276 10.5573 43.2344 10.0781C43.2031 9.59896 43.1562 9.19792 43.0938 8.875C43.0417 8.55208 42.9844 8.28125 42.9219 8.0625V8H46.5312V8.0625C46.4479 8.30208 46.375 8.59375 46.3125 8.9375C46.2604 9.28125 46.2188 9.72396 46.1875 10.2656C46.5729 9.94271 46.974 9.625 47.3906 9.3125C47.8073 9 48.2344 8.72396 48.6719 8.48438C49.1094 8.24479 49.5521 8.05208 50 7.90625C50.4583 7.76042 50.9167 7.6875 51.375 7.6875C51.6562 7.6875 51.901 7.70312 52.1094 7.73438C52.3177 7.75521 52.5052 7.79167 52.6719 7.84375C52.8385 7.88542 52.9896 7.9375 53.125 8C53.2604 8.05208 53.3906 8.10417 53.5156 8.15625L52.75 11.1406L52.4844 11.0781C52.3594 10.6198 52.125 10.2552 51.7812 9.98438C51.4375 9.70312 50.9688 9.5625 50.375 9.5625C50.0521 9.5625 49.7135 9.61979 49.3594 9.73438C49.0052 9.84896 48.6458 10.0104 48.2812 10.2188C47.9167 10.4167 47.5521 10.651 47.1875 10.9219C46.8229 11.1823 46.4688 11.4583 46.125 11.75C46.1042 12.0521 46.0938 12.3802 46.0938 12.7344C46.0938 13.0885 46.0938 13.4635 46.0938 13.8594V17.8906C46.0938 18.776 46.1042 19.5521 46.125 20.2188C46.1458 20.875 46.1771 21.4427 46.2188 21.9219C46.2604 22.401 46.3073 22.8021 46.3594 23.125C46.4115 23.4479 46.4688 23.7188 46.5312 23.9375V24H42.9219V23.9375C42.9844 23.7188 43.0417 23.4479 43.0938 23.125C43.1562 22.8021 43.2031 22.401 43.2344 21.9219C43.276 21.4427 43.3073 20.875 43.3281 20.2188C43.3594 19.5521 43.375 18.776 43.375 17.8906V14.1094ZM61.5938 23.0781C61.9062 23.0781 62.2135 23.0208 62.5156 22.9062C62.8281 22.7917 63.125 22.6354 63.4062 22.4375C63.6979 22.2396 63.974 22.0156 64.2344 21.7656C64.5052 21.5052 64.7552 21.2344 64.9844 20.9531L65.1406 21.0312L64.125 23.5469C64 23.6094 63.8438 23.6875 63.6562 23.7812C63.4792 23.8646 63.2604 23.9427 63 24.0156C62.75 24.099 62.4531 24.1667 62.1094 24.2188C61.7656 24.2812 61.3594 24.3125 60.8906 24.3125C59.4948 24.3125 58.4062 23.9375 57.625 23.1875C56.8542 22.4271 56.4688 21.2448 56.4688 19.6406V9.21875L53.8438 9.3125V7.9375C54.1667 7.95833 54.5521 7.97396 55 7.98438C55.4479 7.99479 55.9375 8 56.4688 8C56.4583 7.26042 56.4375 6.60938 56.4062 6.04688C56.3854 5.47396 56.3542 4.97917 56.3125 4.5625C56.2812 4.13542 56.2396 3.77604 56.1875 3.48438C56.1354 3.19271 56.0833 2.94792 56.0312 2.75V2.6875H59.6406V2.75C59.5781 2.94792 59.5208 3.19271 59.4688 3.48438C59.4167 3.77604 59.3698 4.13021 59.3281 4.54688C59.2969 4.96354 59.2656 5.45833 59.2344 6.03125C59.2135 6.59375 59.1979 7.25 59.1875 8C59.8438 7.98958 60.4844 7.97917 61.1094 7.96875C61.7448 7.94792 62.3177 7.92708 62.8281 7.90625C63.349 7.875 63.7865 7.84896 64.1406 7.82812C64.5052 7.79688 64.7448 7.77083 64.8594 7.75L64.5781 9.34375C64.0469 9.33333 63.4896 9.31771 62.9062 9.29688C62.4062 9.27604 61.8333 9.26042 61.1875 9.25C60.5417 9.23958 59.875 9.22917 59.1875 9.21875V19.9688C59.1875 20.6146 59.2552 21.1406 59.3906 21.5469C59.5365 21.9427 59.7188 22.2552 59.9375 22.4844C60.1667 22.7135 60.4219 22.8698 60.7031 22.9531C60.9948 23.0365 61.2917 23.0781 61.5938 23.0781ZM78.9688 13.4688C78.9688 12.0938 78.6927 11.0833 78.1406 10.4375C77.5885 9.79167 76.849 9.46875 75.9219 9.46875C75.5781 9.46875 75.1927 9.54167 74.7656 9.6875C74.349 9.82292 73.9167 10.0104 73.4688 10.25C73.0312 10.4896 72.5938 10.7708 72.1562 11.0938C71.7188 11.4062 71.3125 11.7396 70.9375 12.0938V17.8906C70.9375 18.776 70.9479 19.5521 70.9688 20.2188C70.9896 20.875 71.0208 21.4427 71.0625 21.9219C71.1042 22.401 71.151 22.8021 71.2031 23.125C71.2552 23.4479 71.3125 23.7188 71.375 23.9375V24H67.7656V23.9375C67.8281 23.7188 67.8854 23.4479 67.9375 23.125C68 22.8021 68.0469 22.401 68.0781 21.9219C68.1198 21.4427 68.151 20.875 68.1719 20.2188C68.2031 19.5521 68.2188 18.776 68.2188 17.8906V6.75C68.2188 5.86458 68.2031 5.09375 68.1719 4.4375C68.151 3.77083 68.1198 3.19792 68.0781 2.71875C68.0469 2.23958 68 1.83854 67.9375 1.51562C67.8854 1.19271 67.8281 0.921875 67.7656 0.703125V0.640625H71.375V0.703125C71.3125 0.921875 71.2552 1.19271 71.2031 1.51562C71.151 1.83854 71.1042 2.23958 71.0625 2.71875C71.0208 3.19792 70.9896 3.77083 70.9688 4.4375C70.9479 5.09375 70.9375 5.86458 70.9375 6.75V10.75C71.3542 10.375 71.8125 10.0052 72.3125 9.64062C72.8229 9.27604 73.349 8.94792 73.8906 8.65625C74.4323 8.36458 74.9844 8.13021 75.5469 7.95312C76.1094 7.77604 76.6615 7.6875 77.2031 7.6875C78.0156 7.6875 78.7031 7.82812 79.2656 8.10938C79.8385 8.39062 80.3021 8.76042 80.6562 9.21875C81.0208 9.67708 81.2812 10.2031 81.4375 10.7969C81.6042 11.3802 81.6875 11.974 81.6875 12.5781V17.8906C81.6875 18.776 81.6979 19.5521 81.7188 20.2188C81.7396 20.875 81.7708 21.4427 81.8125 21.9219C81.8542 22.401 81.901 22.8021 81.9531 23.125C82.0052 23.4479 82.0625 23.7188 82.125 23.9375V24H78.5156V23.9375C78.5781 23.7188 78.6354 23.4479 78.6875 23.125C78.75 22.8021 78.7969 22.401 78.8281 21.9219C78.8698 21.4427 78.901 20.875 78.9219 20.2188C78.9531 19.5521 78.9688 18.776 78.9688 17.8906V13.4688ZM105.172 5.15625H104.828C104.745 4.91667 104.609 4.64583 104.422 4.34375C104.245 4.04167 104.005 3.76042 103.703 3.5C103.411 3.22917 103.052 3.00521 102.625 2.82812C102.208 2.65104 101.714 2.5625 101.141 2.5625C100.63 2.5625 100.177 2.64062 99.7812 2.79688C99.3854 2.95312 99.0521 3.17188 98.7812 3.45312C98.5208 3.73438 98.3229 4.06771 98.1875 4.45312C98.0521 4.83854 97.9844 5.26562 97.9844 5.73438C97.9844 6.48438 98.1927 7.20312 98.6094 7.89062C99.0365 8.56771 99.5677 9.23958 100.203 9.90625C100.839 10.5729 101.526 11.2396 102.266 11.9062C103.005 12.5729 103.693 13.2656 104.328 13.9844C104.964 14.7031 105.49 15.4583 105.906 16.25C106.333 17.0312 106.547 17.875 106.547 18.7812C106.547 19.4583 106.427 20.1406 106.188 20.8281C105.958 21.5052 105.599 22.1146 105.109 22.6562C104.62 23.1979 103.99 23.6406 103.219 23.9844C102.448 24.3177 101.531 24.4844 100.469 24.4844C99.875 24.4844 99.3073 24.4271 98.7656 24.3125C98.2344 24.2083 97.7396 24.0781 97.2812 23.9219C96.8333 23.7552 96.4271 23.5781 96.0625 23.3906C95.7083 23.2031 95.4167 23.0312 95.1875 22.875L95.5469 19.4219H95.9375C96.0521 19.9115 96.2396 20.3802 96.5 20.8281C96.7604 21.2656 97.0781 21.6562 97.4531 22C97.8385 22.3333 98.276 22.6042 98.7656 22.8125C99.2552 23.0104 99.7917 23.1094 100.375 23.1094C100.906 23.1094 101.38 23.0312 101.797 22.875C102.224 22.7083 102.589 22.4844 102.891 22.2031C103.193 21.9115 103.422 21.5677 103.578 21.1719C103.745 20.776 103.828 20.3438 103.828 19.875C103.828 19.2188 103.708 18.6146 103.469 18.0625C103.229 17.5 102.911 16.9688 102.516 16.4688C102.13 15.9688 101.688 15.4844 101.188 15.0156C100.698 14.5469 100.193 14.0781 99.6719 13.6094C99.151 13.1302 98.6406 12.6406 98.1406 12.1406C97.651 11.6406 97.2083 11.1094 96.8125 10.5469C96.4271 9.97396 96.1146 9.36458 95.875 8.71875C95.6354 8.0625 95.5156 7.34375 95.5156 6.5625C95.5156 5.73958 95.6719 5 95.9844 4.34375C96.3073 3.67708 96.7292 3.10938 97.25 2.64062C97.7812 2.17188 98.3802 1.8125 99.0469 1.5625C99.7135 1.3125 100.401 1.1875 101.109 1.1875C101.63 1.1875 102.109 1.22917 102.547 1.3125C102.984 1.39583 103.375 1.49479 103.719 1.60938C104.073 1.72396 104.38 1.83854 104.641 1.95312C104.901 2.06771 105.115 2.16146 105.281 2.23438L105.172 5.15625ZM116.219 23.0781C116.531 23.0781 116.839 23.0208 117.141 22.9062C117.453 22.7917 117.75 22.6354 118.031 22.4375C118.323 22.2396 118.599 22.0156 118.859 21.7656C119.13 21.5052 119.38 21.2344 119.609 20.9531L119.766 21.0312L118.75 23.5469C118.625 23.6094 118.469 23.6875 118.281 23.7812C118.104 23.8646 117.885 23.9427 117.625 24.0156C117.375 24.099 117.078 24.1667 116.734 24.2188C116.391 24.2812 115.984 24.3125 115.516 24.3125C114.12 24.3125 113.031 23.9375 112.25 23.1875C111.479 22.4271 111.094 21.2448 111.094 19.6406V9.21875L108.469 9.3125V7.9375C108.792 7.95833 109.177 7.97396 109.625 7.98438C110.073 7.99479 110.562 8 111.094 8C111.083 7.26042 111.062 6.60938 111.031 6.04688C111.01 5.47396 110.979 4.97917 110.938 4.5625C110.906 4.13542 110.865 3.77604 110.812 3.48438C110.76 3.19271 110.708 2.94792 110.656 2.75V2.6875H114.266V2.75C114.203 2.94792 114.146 3.19271 114.094 3.48438C114.042 3.77604 113.995 4.13021 113.953 4.54688C113.922 4.96354 113.891 5.45833 113.859 6.03125C113.839 6.59375 113.823 7.25 113.812 8C114.469 7.98958 115.109 7.97917 115.734 7.96875C116.37 7.94792 116.943 7.92708 117.453 7.90625C117.974 7.875 118.411 7.84896 118.766 7.82812C119.13 7.79688 119.37 7.77083 119.484 7.75L119.203 9.34375C118.672 9.33333 118.115 9.31771 117.531 9.29688C117.031 9.27604 116.458 9.26042 115.812 9.25C115.167 9.23958 114.5 9.22917 113.812 9.21875V19.9688C113.812 20.6146 113.88 21.1406 114.016 21.5469C114.161 21.9427 114.344 22.2552 114.562 22.4844C114.792 22.7135 115.047 22.8698 115.328 22.9531C115.62 23.0365 115.917 23.0781 116.219 23.0781ZM121.594 19.3906C121.594 18.5677 121.76 17.8542 122.094 17.25C122.438 16.6458 122.891 16.1302 123.453 15.7031C124.016 15.276 124.656 14.9323 125.375 14.6719C126.094 14.401 126.839 14.1927 127.609 14.0469C128.38 13.8906 129.141 13.7865 129.891 13.7344C130.641 13.6719 131.328 13.6354 131.953 13.625V12.8281C131.953 12.1406 131.865 11.5469 131.688 11.0469C131.51 10.5469 131.26 10.1354 130.938 9.8125C130.615 9.47917 130.224 9.23438 129.766 9.07812C129.318 8.91146 128.823 8.82812 128.281 8.82812C127.906 8.82812 127.536 8.85938 127.172 8.92188C126.807 8.98438 126.427 9.08854 126.031 9.23438C125.646 9.38021 125.234 9.57812 124.797 9.82812C124.37 10.0781 123.906 10.3958 123.406 10.7812L123.25 10.6875L124.312 8.48438C124.656 8.32812 124.995 8.20312 125.328 8.10938C125.661 8.00521 126 7.92188 126.344 7.85938C126.688 7.79688 127.036 7.75521 127.391 7.73438C127.755 7.70312 128.135 7.6875 128.531 7.6875C129.625 7.6875 130.557 7.82292 131.328 8.09375C132.109 8.35417 132.745 8.71875 133.234 9.1875C133.734 9.64583 134.099 10.1875 134.328 10.8125C134.557 11.4271 134.672 12.0885 134.672 12.7969V17.8906C134.672 18.776 134.682 19.5521 134.703 20.2188C134.734 20.875 134.766 21.4427 134.797 21.9219C134.839 22.401 134.885 22.8021 134.938 23.125C135 23.4479 135.062 23.7188 135.125 23.9375V24H131.672V23.9375C131.724 23.7708 131.76 23.5833 131.781 23.375C131.812 23.1667 131.839 22.9167 131.859 22.625C131.641 22.8125 131.38 23.0052 131.078 23.2031C130.786 23.401 130.448 23.5833 130.062 23.75C129.688 23.9062 129.266 24.0312 128.797 24.125C128.339 24.2292 127.833 24.2812 127.281 24.2812C125.469 24.2812 124.068 23.8594 123.078 23.0156C122.089 22.1615 121.594 20.9531 121.594 19.3906ZM131.953 14.8438C131.005 14.8542 130.094 14.9115 129.219 15.0156C128.344 15.1094 127.568 15.3125 126.891 15.625C126.224 15.9375 125.688 16.3854 125.281 16.9688C124.885 17.5417 124.688 18.3073 124.688 19.2656C124.688 20.4948 124.995 21.4323 125.609 22.0781C126.224 22.724 127.073 23.0469 128.156 23.0469C128.656 23.0469 129.109 22.9792 129.516 22.8438C129.932 22.6979 130.297 22.5208 130.609 22.3125C130.932 22.0938 131.203 21.8594 131.422 21.6094C131.641 21.349 131.807 21.099 131.922 20.8594C131.943 20.4635 131.953 20.026 131.953 19.5469C131.953 19.0573 131.953 18.5052 131.953 17.8906V14.8438ZM139.406 14.1094C139.406 13.224 139.391 12.4531 139.359 11.7969C139.339 11.1302 139.307 10.5573 139.266 10.0781C139.234 9.59896 139.188 9.19792 139.125 8.875C139.073 8.55208 139.016 8.28125 138.953 8.0625V8H142.562V8.0625C142.479 8.30208 142.406 8.59375 142.344 8.9375C142.292 9.28125 142.25 9.72396 142.219 10.2656C142.604 9.94271 143.005 9.625 143.422 9.3125C143.839 9 144.266 8.72396 144.703 8.48438C145.141 8.24479 145.583 8.05208 146.031 7.90625C146.49 7.76042 146.948 7.6875 147.406 7.6875C147.688 7.6875 147.932 7.70312 148.141 7.73438C148.349 7.75521 148.536 7.79167 148.703 7.84375C148.87 7.88542 149.021 7.9375 149.156 8C149.292 8.05208 149.422 8.10417 149.547 8.15625L148.781 11.1406L148.516 11.0781C148.391 10.6198 148.156 10.2552 147.812 9.98438C147.469 9.70312 147 9.5625 146.406 9.5625C146.083 9.5625 145.745 9.61979 145.391 9.73438C145.036 9.84896 144.677 10.0104 144.312 10.2188C143.948 10.4167 143.583 10.651 143.219 10.9219C142.854 11.1823 142.5 11.4583 142.156 11.75C142.135 12.0521 142.125 12.3802 142.125 12.7344C142.125 13.0885 142.125 13.4635 142.125 13.8594V17.8906C142.125 18.776 142.135 19.5521 142.156 20.2188C142.177 20.875 142.208 21.4427 142.25 21.9219C142.292 22.401 142.339 22.8021 142.391 23.125C142.443 23.4479 142.5 23.7188 142.562 23.9375V24H138.953V23.9375C139.016 23.7188 139.073 23.4479 139.125 23.125C139.188 22.8021 139.234 22.401 139.266 21.9219C139.307 21.4427 139.339 20.875 139.359 20.2188C139.391 19.5521 139.406 18.776 139.406 17.8906V14.1094ZM179.516 5.03125L179.375 5.09375C178.562 4.34375 177.583 3.74479 176.438 3.29688C175.302 2.84896 174.052 2.625 172.688 2.625C171.375 2.625 170.172 2.83333 169.078 3.25C167.984 3.65625 167.042 4.25 166.25 5.03125C165.469 5.8125 164.859 6.77083 164.422 7.90625C163.984 9.04167 163.766 10.3333 163.766 11.7812C163.766 13.375 163.974 14.8646 164.391 16.25C164.807 17.625 165.427 18.8177 166.25 19.8281C167.073 20.8385 168.099 21.6354 169.328 22.2188C170.568 22.7917 172.01 23.0781 173.656 23.0781C174.25 23.0781 174.844 23.0156 175.438 22.8906C176.031 22.7656 176.599 22.5833 177.141 22.3438C177.693 22.0938 178.208 21.7969 178.688 21.4531C179.177 21.099 179.62 20.6979 180.016 20.25L180.188 20.3594L178.938 23.5469C178.156 23.849 177.292 24.0781 176.344 24.2344C175.406 24.401 174.458 24.4844 173.5 24.4844C171.573 24.4844 169.807 24.2083 168.203 23.6562C166.609 23.0938 165.234 22.3021 164.078 21.2812C162.932 20.2604 162.036 19.0365 161.391 17.6094C160.755 16.1719 160.438 14.5781 160.438 12.8281C160.438 11.8385 160.562 10.8646 160.812 9.90625C161.073 8.94792 161.448 8.03646 161.938 7.17188C162.427 6.30729 163.031 5.51562 163.75 4.79688C164.469 4.06771 165.286 3.4375 166.203 2.90625C167.13 2.375 168.146 1.96354 169.25 1.67188C170.365 1.36979 171.568 1.21875 172.859 1.21875C174.87 1.21875 176.734 1.52604 178.453 2.14062L179.516 5.03125ZM181.906 15.9688C181.906 14.7917 182.125 13.7031 182.562 12.7031C183 11.6927 183.599 10.8177 184.359 10.0781C185.13 9.33854 186.036 8.76042 187.078 8.34375C188.12 7.92708 189.24 7.71875 190.438 7.71875C191.615 7.71875 192.719 7.91667 193.75 8.3125C194.792 8.69792 195.698 9.25 196.469 9.96875C197.24 10.6875 197.844 11.5625 198.281 12.5938C198.729 13.625 198.953 14.7812 198.953 16.0625C198.953 17.1354 198.766 18.1667 198.391 19.1562C198.016 20.1458 197.464 21.0208 196.734 21.7812C196.005 22.5417 195.109 23.151 194.047 23.6094C192.995 24.0573 191.781 24.2812 190.406 24.2812C189.24 24.2812 188.141 24.0885 187.109 23.7031C186.078 23.3177 185.177 22.7656 184.406 22.0469C183.635 21.3281 183.026 20.4583 182.578 19.4375C182.13 18.4062 181.906 17.25 181.906 15.9688ZM190.766 23.1406C191.505 23.1406 192.182 22.9948 192.797 22.7031C193.422 22.4115 193.958 21.9896 194.406 21.4375C194.854 20.8854 195.203 20.2135 195.453 19.4219C195.703 18.6302 195.828 17.7344 195.828 16.7344C195.828 15.6094 195.708 14.5677 195.469 13.6094C195.229 12.6406 194.87 11.8073 194.391 11.1094C193.922 10.401 193.328 9.84896 192.609 9.45312C191.891 9.05729 191.052 8.85938 190.094 8.85938C189.354 8.85938 188.677 9.00521 188.062 9.29688C187.448 9.57812 186.911 9.98958 186.453 10.5312C186.005 11.0729 185.656 11.7396 185.406 12.5312C185.156 13.3125 185.031 14.2031 185.031 15.2031C185.031 16.3281 185.151 17.375 185.391 18.3438C185.641 19.3125 186.005 20.1562 186.484 20.875C186.964 21.5833 187.557 22.1406 188.266 22.5469C188.984 22.9427 189.818 23.1406 190.766 23.1406ZM208.25 1.625C207.99 1.625 207.708 1.67188 207.406 1.76562C207.115 1.85938 206.844 2.03125 206.594 2.28125C206.344 2.53125 206.135 2.88021 205.969 3.32812C205.802 3.76562 205.719 4.33333 205.719 5.03125V8C206.271 7.98958 206.786 7.97396 207.266 7.95312C207.755 7.93229 208.193 7.91146 208.578 7.89062C208.964 7.86979 209.286 7.84896 209.547 7.82812C209.807 7.79688 209.995 7.77083 210.109 7.75L209.828 9.34375C209.464 9.33333 209.068 9.31771 208.641 9.29688C208.276 9.27604 207.844 9.26042 207.344 9.25C206.844 9.23958 206.302 9.22917 205.719 9.21875V17.8906C205.719 18.776 205.729 19.5521 205.75 20.2188C205.781 20.875 205.812 21.4427 205.844 21.9219C205.885 22.401 205.932 22.8021 205.984 23.125C206.047 23.4479 206.109 23.7188 206.172 23.9375V24H202.562V23.9375C202.625 23.7188 202.682 23.4479 202.734 23.125C202.786 22.8021 202.833 22.401 202.875 21.9219C202.917 21.4427 202.948 20.875 202.969 20.2188C202.99 19.5521 203 18.776 203 17.8906V9.21875L200.375 9.3125V7.9375C200.698 7.95833 201.083 7.97396 201.531 7.98438C201.979 7.99479 202.469 8 203 8V5.375C203 4.57292 203.115 3.86458 203.344 3.25C203.583 2.625 203.911 2.10417 204.328 1.6875C204.745 1.26042 205.245 0.9375 205.828 0.71875C206.411 0.5 207.052 0.390625 207.75 0.390625C208.135 0.390625 208.495 0.416667 208.828 0.46875C209.161 0.520833 209.458 0.583333 209.719 0.65625C209.99 0.729167 210.224 0.807292 210.422 0.890625C210.63 0.963542 210.802 1.03125 210.938 1.09375L211.547 3.78125L211.359 3.875C211.193 3.625 211.01 3.36979 210.812 3.10938C210.615 2.83854 210.391 2.59375 210.141 2.375C209.891 2.15625 209.609 1.97917 209.297 1.84375C208.995 1.69792 208.646 1.625 208.25 1.625ZM218.5 1.625C218.24 1.625 217.958 1.67188 217.656 1.76562C217.365 1.85938 217.094 2.03125 216.844 2.28125C216.594 2.53125 216.385 2.88021 216.219 3.32812C216.052 3.76562 215.969 4.33333 215.969 5.03125V8C216.521 7.98958 217.036 7.97396 217.516 7.95312C218.005 7.93229 218.443 7.91146 218.828 7.89062C219.214 7.86979 219.536 7.84896 219.797 7.82812C220.057 7.79688 220.245 7.77083 220.359 7.75L220.078 9.34375C219.714 9.33333 219.318 9.31771 218.891 9.29688C218.526 9.27604 218.094 9.26042 217.594 9.25C217.094 9.23958 216.552 9.22917 215.969 9.21875V17.8906C215.969 18.776 215.979 19.5521 216 20.2188C216.031 20.875 216.062 21.4427 216.094 21.9219C216.135 22.401 216.182 22.8021 216.234 23.125C216.297 23.4479 216.359 23.7188 216.422 23.9375V24H212.812V23.9375C212.875 23.7188 212.932 23.4479 212.984 23.125C213.036 22.8021 213.083 22.401 213.125 21.9219C213.167 21.4427 213.198 20.875 213.219 20.2188C213.24 19.5521 213.25 18.776 213.25 17.8906V9.21875L210.625 9.3125V7.9375C210.948 7.95833 211.333 7.97396 211.781 7.98438C212.229 7.99479 212.719 8 213.25 8V5.375C213.25 4.57292 213.365 3.86458 213.594 3.25C213.833 2.625 214.161 2.10417 214.578 1.6875C214.995 1.26042 215.495 0.9375 216.078 0.71875C216.661 0.5 217.302 0.390625 218 0.390625C218.385 0.390625 218.745 0.416667 219.078 0.46875C219.411 0.520833 219.708 0.583333 219.969 0.65625C220.24 0.729167 220.474 0.807292 220.672 0.890625C220.88 0.963542 221.052 1.03125 221.188 1.09375L221.797 3.78125L221.609 3.875C221.443 3.625 221.26 3.36979 221.062 3.10938C220.865 2.83854 220.641 2.59375 220.391 2.375C220.141 2.15625 219.859 1.97917 219.547 1.84375C219.245 1.69792 218.896 1.625 218.5 1.625ZM229.656 24.2812C228.5 24.2812 227.417 24.099 226.406 23.7344C225.396 23.3698 224.516 22.8385 223.766 22.1406C223.016 21.4323 222.422 20.5625 221.984 19.5312C221.557 18.4896 221.344 17.3021 221.344 15.9688C221.344 14.7917 221.542 13.7031 221.938 12.7031C222.333 11.6927 222.88 10.8177 223.578 10.0781C224.276 9.33854 225.089 8.76042 226.016 8.34375C226.953 7.92708 227.964 7.71875 229.047 7.71875C230.12 7.71875 231.115 7.90625 232.031 8.28125C232.948 8.64583 233.74 9.18229 234.406 9.89062C235.083 10.5885 235.615 11.4583 236 12.5C236.396 13.5312 236.609 14.7083 236.641 16.0312C235.464 16.0104 234.286 15.9948 233.109 15.9844C231.932 15.974 230.708 15.9688 229.438 15.9688C228.531 15.9688 227.646 15.974 226.781 15.9844C225.927 15.9948 225.156 16.0104 224.469 16.0312C224.531 17.1146 224.698 18.0938 224.969 18.9688C225.25 19.8438 225.63 20.5938 226.109 21.2188C226.599 21.8333 227.188 22.3073 227.875 22.6406C228.573 22.974 229.359 23.1406 230.234 23.1406C230.839 23.1406 231.406 23.0729 231.938 22.9375C232.479 22.7917 232.969 22.5938 233.406 22.3438C233.844 22.0938 234.234 21.8021 234.578 21.4688C234.922 21.125 235.214 20.7552 235.453 20.3594L235.641 20.4531L234.484 23.2344C233.922 23.526 233.25 23.776 232.469 23.9844C231.688 24.1823 230.75 24.2812 229.656 24.2812ZM227.578 14.75C228.62 14.75 229.661 14.75 230.703 14.75C231.755 14.7396 232.708 14.7188 233.562 14.6875C233.469 13.7812 233.292 12.9688 233.031 12.25C232.771 11.5312 232.438 10.9219 232.031 10.4219C231.625 9.92188 231.146 9.53646 230.594 9.26562C230.042 8.99479 229.432 8.85938 228.766 8.85938C228.161 8.85938 227.604 8.99479 227.094 9.26562C226.594 9.52604 226.156 9.90625 225.781 10.4062C225.406 10.9062 225.104 11.5208 224.875 12.25C224.646 12.9688 224.51 13.7917 224.469 14.7188C224.938 14.7396 225.432 14.75 225.953 14.75C226.474 14.75 227.016 14.75 227.578 14.75ZM247 24.2812C245.844 24.2812 244.76 24.099 243.75 23.7344C242.74 23.3698 241.859 22.8385 241.109 22.1406C240.359 21.4323 239.766 20.5625 239.328 19.5312C238.901 18.4896 238.688 17.3021 238.688 15.9688C238.688 14.7917 238.885 13.7031 239.281 12.7031C239.677 11.6927 240.224 10.8177 240.922 10.0781C241.62 9.33854 242.432 8.76042 243.359 8.34375C244.297 7.92708 245.307 7.71875 246.391 7.71875C247.464 7.71875 248.458 7.90625 249.375 8.28125C250.292 8.64583 251.083 9.18229 251.75 9.89062C252.427 10.5885 252.958 11.4583 253.344 12.5C253.74 13.5312 253.953 14.7083 253.984 16.0312C252.807 16.0104 251.63 15.9948 250.453 15.9844C249.276 15.974 248.052 15.9688 246.781 15.9688C245.875 15.9688 244.99 15.974 244.125 15.9844C243.271 15.9948 242.5 16.0104 241.812 16.0312C241.875 17.1146 242.042 18.0938 242.312 18.9688C242.594 19.8438 242.974 20.5938 243.453 21.2188C243.943 21.8333 244.531 22.3073 245.219 22.6406C245.917 22.974 246.703 23.1406 247.578 23.1406C248.182 23.1406 248.75 23.0729 249.281 22.9375C249.823 22.7917 250.312 22.5938 250.75 22.3438C251.188 22.0938 251.578 21.8021 251.922 21.4688C252.266 21.125 252.557 20.7552 252.797 20.3594L252.984 20.4531L251.828 23.2344C251.266 23.526 250.594 23.776 249.812 23.9844C249.031 24.1823 248.094 24.2812 247 24.2812ZM244.922 14.75C245.964 14.75 247.005 14.75 248.047 14.75C249.099 14.7396 250.052 14.7188 250.906 14.6875C250.812 13.7812 250.635 12.9688 250.375 12.25C250.115 11.5312 249.781 10.9219 249.375 10.4219C248.969 9.92188 248.49 9.53646 247.938 9.26562C247.385 8.99479 246.776 8.85938 246.109 8.85938C245.505 8.85938 244.948 8.99479 244.438 9.26562C243.938 9.52604 243.5 9.90625 243.125 10.4062C242.75 10.9062 242.448 11.5208 242.219 12.25C241.99 12.9688 241.854 13.7917 241.812 14.7188C242.281 14.7396 242.776 14.75 243.297 14.75C243.818 14.75 244.359 14.75 244.922 14.75ZM41.4219 45.0312L41.2812 45.0938C40.4688 44.3438 39.4896 43.7448 38.3438 43.2969C37.2083 42.849 35.9583 42.625 34.5938 42.625C33.2812 42.625 32.0781 42.8333 30.9844 43.25C29.8906 43.6562 28.9479 44.25 28.1562 45.0312C27.375 45.8125 26.7656 46.7708 26.3281 47.9062C25.8906 49.0417 25.6719 50.3333 25.6719 51.7812C25.6719 53.375 25.8802 54.8646 26.2969 56.25C26.7135 57.625 27.3333 58.8177 28.1562 59.8281C28.9792 60.8385 30.0052 61.6354 31.2344 62.2188C32.474 62.7917 33.9167 63.0781 35.5625 63.0781C36.1562 63.0781 36.75 63.0156 37.3438 62.8906C37.9375 62.7656 38.5052 62.5833 39.0469 62.3438C39.599 62.0938 40.1146 61.7969 40.5938 61.4531C41.0833 61.099 41.526 60.6979 41.9219 60.25L42.0938 60.3594L40.8438 63.5469C40.0625 63.849 39.1979 64.0781 38.25 64.2344C37.3125 64.401 36.3646 64.4844 35.4062 64.4844C33.4792 64.4844 31.7135 64.2083 30.1094 63.6562C28.5156 63.0938 27.1406 62.3021 25.9844 61.2812C24.8385 60.2604 23.9427 59.0365 23.2969 57.6094C22.6615 56.1719 22.3438 54.5781 22.3438 52.8281C22.3438 51.8385 22.4688 50.8646 22.7188 49.9062C22.9792 48.9479 23.3542 48.0365 23.8438 47.1719C24.3333 46.3073 24.9375 45.5156 25.6562 44.7969C26.375 44.0677 27.1927 43.4375 28.1094 42.9062C29.0365 42.375 30.0521 41.9635 31.1562 41.6719C32.2708 41.3698 33.474 41.2188 34.7656 41.2188C36.776 41.2188 38.6406 41.526 40.3594 42.1406L41.4219 45.0312ZM43.8125 55.9688C43.8125 54.7917 44.0312 53.7031 44.4688 52.7031C44.9062 51.6927 45.5052 50.8177 46.2656 50.0781C47.0365 49.3385 47.9427 48.7604 48.9844 48.3438C50.026 47.9271 51.1458 47.7188 52.3438 47.7188C53.5208 47.7188 54.625 47.9167 55.6562 48.3125C56.6979 48.6979 57.6042 49.25 58.375 49.9688C59.1458 50.6875 59.75 51.5625 60.1875 52.5938C60.6354 53.625 60.8594 54.7812 60.8594 56.0625C60.8594 57.1354 60.6719 58.1667 60.2969 59.1562C59.9219 60.1458 59.3698 61.0208 58.6406 61.7812C57.9115 62.5417 57.0156 63.151 55.9531 63.6094C54.901 64.0573 53.6875 64.2812 52.3125 64.2812C51.1458 64.2812 50.0469 64.0885 49.0156 63.7031C47.9844 63.3177 47.0833 62.7656 46.3125 62.0469C45.5417 61.3281 44.9323 60.4583 44.4844 59.4375C44.0365 58.4062 43.8125 57.25 43.8125 55.9688ZM52.6719 63.1406C53.4115 63.1406 54.0885 62.9948 54.7031 62.7031C55.3281 62.4115 55.8646 61.9896 56.3125 61.4375C56.7604 60.8854 57.1094 60.2135 57.3594 59.4219C57.6094 58.6302 57.7344 57.7344 57.7344 56.7344C57.7344 55.6094 57.6146 54.5677 57.375 53.6094C57.1354 52.6406 56.776 51.8073 56.2969 51.1094C55.8281 50.401 55.2344 49.849 54.5156 49.4531C53.7969 49.0573 52.9583 48.8594 52 48.8594C51.2604 48.8594 50.5833 49.0052 49.9688 49.2969C49.3542 49.5781 48.8177 49.9896 48.3594 50.5312C47.9115 51.0729 47.5625 51.7396 47.3125 52.5312C47.0625 53.3125 46.9375 54.2031 46.9375 55.2031C46.9375 56.3281 47.0573 57.375 47.2969 58.3438C47.5469 59.3125 47.9115 60.1562 48.3906 60.875C48.8698 61.5833 49.4635 62.1406 50.1719 62.5469C50.8906 62.9427 51.724 63.1406 52.6719 63.1406ZM74.7969 53.4688C74.7969 52.7812 74.724 52.1875 74.5781 51.6875C74.4427 51.1875 74.2396 50.776 73.9688 50.4531C73.7083 50.1198 73.3906 49.875 73.0156 49.7188C72.6406 49.5521 72.224 49.4688 71.7656 49.4688C71.4531 49.4688 71.1042 49.5312 70.7188 49.6562C70.3333 49.7812 69.9323 49.9531 69.5156 50.1719C69.1094 50.3802 68.6979 50.625 68.2812 50.9062C67.875 51.1875 67.4896 51.4896 67.125 51.8125C67.1042 52.1458 67.0938 52.5052 67.0938 52.8906C67.0938 53.2656 67.0938 53.6719 67.0938 54.1094V57.8906C67.0938 58.776 67.1042 59.5521 67.125 60.2188C67.1458 60.875 67.1771 61.4427 67.2188 61.9219C67.2604 62.401 67.3073 62.8021 67.3594 63.125C67.4115 63.4479 67.4688 63.7188 67.5312 63.9375V64H63.9219V63.9375C63.9844 63.7188 64.0417 63.4479 64.0938 63.125C64.1562 62.8021 64.2031 62.401 64.2344 61.9219C64.276 61.4427 64.3073 60.875 64.3281 60.2188C64.3594 59.5521 64.375 58.776 64.375 57.8906V54.1094C64.375 53.224 64.3594 52.4531 64.3281 51.7969C64.3073 51.1302 64.276 50.5573 64.2344 50.0781C64.2031 49.599 64.1562 49.1979 64.0938 48.875C64.0417 48.5521 63.9844 48.2812 63.9219 48.0625V48H67.5312V48.0625C67.4479 48.3021 67.3802 48.6094 67.3281 48.9844C67.2865 49.349 67.2396 49.8125 67.1875 50.375C67.6042 50.0417 68.0521 49.7135 68.5312 49.3906C69.0104 49.0677 69.5 48.7812 70 48.5312C70.5104 48.2812 71.0208 48.0781 71.5312 47.9219C72.0417 47.7656 72.5469 47.6875 73.0469 47.6875C73.6406 47.6875 74.1667 47.7656 74.625 47.9219C75.0833 48.0781 75.4844 48.2917 75.8281 48.5625C76.1719 48.8333 76.4583 49.151 76.6875 49.5156C76.9271 49.8802 77.1094 50.2708 77.2344 50.6875C77.6615 50.3229 78.125 49.9635 78.625 49.6094C79.1354 49.2448 79.6562 48.9219 80.1875 48.6406C80.7292 48.3594 81.276 48.1302 81.8281 47.9531C82.3906 47.776 82.9375 47.6875 83.4688 47.6875C84.2812 47.6875 84.9688 47.8281 85.5312 48.1094C86.1042 48.3906 86.5677 48.7604 86.9219 49.2188C87.2865 49.6771 87.5469 50.2031 87.7031 50.7969C87.8698 51.3802 87.9531 51.974 87.9531 52.5781V57.8906C87.9531 58.776 87.9635 59.5521 87.9844 60.2188C88.0052 60.875 88.0365 61.4427 88.0781 61.9219C88.1198 62.401 88.1667 62.8021 88.2188 63.125C88.2812 63.4479 88.3438 63.7188 88.4062 63.9375V64H84.7812V63.9375C84.8438 63.7188 84.901 63.4479 84.9531 63.125C85.0156 62.8021 85.0677 62.401 85.1094 61.9219C85.151 61.4427 85.1823 60.875 85.2031 60.2188C85.224 59.5521 85.2344 58.776 85.2344 57.8906V53.4688C85.2344 52.0938 84.9583 51.0833 84.4062 50.4375C83.8542 49.7917 83.1146 49.4688 82.1875 49.4688C81.8646 49.4688 81.5052 49.5312 81.1094 49.6562C80.724 49.7812 80.3229 49.9531 79.9062 50.1719C79.4896 50.3906 79.0729 50.6458 78.6562 50.9375C78.2396 51.2188 77.849 51.5208 77.4844 51.8438C77.5052 51.9688 77.5156 52.0938 77.5156 52.2188C77.5156 52.3438 77.5156 52.4635 77.5156 52.5781V57.8906C77.5156 58.776 77.526 59.5521 77.5469 60.2188C77.5781 60.875 77.6094 61.4427 77.6406 61.9219C77.6823 62.401 77.7292 62.8021 77.7812 63.125C77.8438 63.4479 77.9062 63.7188 77.9688 63.9375V64H74.3594V63.9375C74.4219 63.7188 74.4792 63.4479 74.5312 63.125C74.5833 62.8021 74.6302 62.401 74.6719 61.9219C74.7135 61.4427 74.7448 60.875 74.7656 60.2188C74.7865 59.5521 74.7969 58.776 74.7969 57.8906V53.4688ZM92.6562 53.7969C92.6562 52.9115 92.6406 52.1406 92.6094 51.4844C92.5885 50.8177 92.5573 50.2448 92.5156 49.7656C92.4844 49.2865 92.4375 48.8854 92.375 48.5625C92.3229 48.2396 92.2656 47.9688 92.2031 47.75V47.6875H95.8125V47.75C95.7604 47.9062 95.7135 48.0833 95.6719 48.2812C95.6302 48.4792 95.5938 48.7031 95.5625 48.9531C96.1771 48.599 96.8542 48.3021 97.5938 48.0625C98.3438 47.8125 99.1719 47.6875 100.078 47.6875C101.234 47.6875 102.286 47.8854 103.234 48.2812C104.193 48.6667 105.01 49.224 105.688 49.9531C106.375 50.6823 106.906 51.5625 107.281 52.5938C107.656 53.625 107.844 54.7812 107.844 56.0625C107.844 57.1354 107.656 58.1667 107.281 59.1562C106.917 60.1458 106.375 61.0208 105.656 61.7812C104.948 62.5417 104.073 63.151 103.031 63.6094C101.99 64.0573 100.792 64.2812 99.4375 64.2812C98.625 64.2812 97.8854 64.2188 97.2188 64.0938C96.5521 63.9688 95.9375 63.8073 95.375 63.6094V65.8906C95.375 66.776 95.3854 67.5469 95.4062 68.2031C95.4271 68.8698 95.4583 69.4427 95.5 69.9219C95.5417 70.401 95.5885 70.8021 95.6406 71.125C95.6927 71.4479 95.75 71.7188 95.8125 71.9375V72H92.2031V71.9375C92.2656 71.7188 92.3229 71.4479 92.375 71.125C92.4375 70.8021 92.4844 70.401 92.5156 69.9219C92.5573 69.4427 92.5885 68.8698 92.6094 68.2031C92.6406 67.5469 92.6562 66.776 92.6562 65.8906V53.7969ZM99.5312 48.8594C99.1771 48.8594 98.8125 48.9062 98.4375 49C98.0729 49.0833 97.7083 49.2083 97.3438 49.375C96.9896 49.5312 96.6458 49.7344 96.3125 49.9844C95.9896 50.224 95.6979 50.5 95.4375 50.8125C95.4167 51.2083 95.401 51.6562 95.3906 52.1562C95.3802 52.6562 95.375 53.2031 95.375 53.7969V61.9844C95.5833 62.1406 95.8177 62.2865 96.0781 62.4219C96.3385 62.5573 96.6302 62.6823 96.9531 62.7969C97.2865 62.901 97.6562 62.9844 98.0625 63.0469C98.4792 63.1094 98.9375 63.1406 99.4375 63.1406C100.25 63.1406 100.984 62.9948 101.641 62.7031C102.297 62.4115 102.849 61.9896 103.297 61.4375C103.755 60.8854 104.104 60.2135 104.344 59.4219C104.594 58.6302 104.719 57.7344 104.719 56.7344C104.719 55.6094 104.625 54.5677 104.438 53.6094C104.25 52.6406 103.948 51.8073 103.531 51.1094C103.125 50.401 102.594 49.849 101.938 49.4531C101.281 49.0573 100.479 48.8594 99.5312 48.8594ZM110.094 59.3906C110.094 58.5677 110.26 57.8542 110.594 57.25C110.938 56.6458 111.391 56.1302 111.953 55.7031C112.516 55.276 113.156 54.9323 113.875 54.6719C114.594 54.401 115.339 54.1927 116.109 54.0469C116.88 53.8906 117.641 53.7865 118.391 53.7344C119.141 53.6719 119.828 53.6354 120.453 53.625V52.8281C120.453 52.1406 120.365 51.5469 120.188 51.0469C120.01 50.5469 119.76 50.1354 119.438 49.8125C119.115 49.4792 118.724 49.2344 118.266 49.0781C117.818 48.9115 117.323 48.8281 116.781 48.8281C116.406 48.8281 116.036 48.8594 115.672 48.9219C115.307 48.9844 114.927 49.0885 114.531 49.2344C114.146 49.3802 113.734 49.5781 113.297 49.8281C112.87 50.0781 112.406 50.3958 111.906 50.7812L111.75 50.6875L112.812 48.4844C113.156 48.3281 113.495 48.2031 113.828 48.1094C114.161 48.0052 114.5 47.9219 114.844 47.8594C115.188 47.7969 115.536 47.7552 115.891 47.7344C116.255 47.7031 116.635 47.6875 117.031 47.6875C118.125 47.6875 119.057 47.8229 119.828 48.0938C120.609 48.3542 121.245 48.7188 121.734 49.1875C122.234 49.6458 122.599 50.1875 122.828 50.8125C123.057 51.4271 123.172 52.0885 123.172 52.7969V57.8906C123.172 58.776 123.182 59.5521 123.203 60.2188C123.234 60.875 123.266 61.4427 123.297 61.9219C123.339 62.401 123.385 62.8021 123.438 63.125C123.5 63.4479 123.562 63.7188 123.625 63.9375V64H120.172V63.9375C120.224 63.7708 120.26 63.5833 120.281 63.375C120.312 63.1667 120.339 62.9167 120.359 62.625C120.141 62.8125 119.88 63.0052 119.578 63.2031C119.286 63.401 118.948 63.5833 118.562 63.75C118.188 63.9062 117.766 64.0312 117.297 64.125C116.839 64.2292 116.333 64.2812 115.781 64.2812C113.969 64.2812 112.568 63.8594 111.578 63.0156C110.589 62.1615 110.094 60.9531 110.094 59.3906ZM120.453 54.8438C119.505 54.8542 118.594 54.9115 117.719 55.0156C116.844 55.1094 116.068 55.3125 115.391 55.625C114.724 55.9375 114.188 56.3854 113.781 56.9688C113.385 57.5417 113.188 58.3073 113.188 59.2656C113.188 60.4948 113.495 61.4323 114.109 62.0781C114.724 62.724 115.573 63.0469 116.656 63.0469C117.156 63.0469 117.609 62.9792 118.016 62.8438C118.432 62.6979 118.797 62.5208 119.109 62.3125C119.432 62.0938 119.703 61.8594 119.922 61.6094C120.141 61.349 120.307 61.099 120.422 60.8594C120.443 60.4635 120.453 60.026 120.453 59.5469C120.453 59.0573 120.453 58.5052 120.453 57.8906V54.8438ZM138.656 53.4688C138.656 52.0938 138.38 51.0833 137.828 50.4375C137.276 49.7917 136.536 49.4688 135.609 49.4688C135.276 49.4688 134.901 49.5417 134.484 49.6875C134.068 49.8229 133.641 50.0104 133.203 50.25C132.766 50.4792 132.328 50.75 131.891 51.0625C131.453 51.375 131.042 51.7083 130.656 52.0625L130.625 54.1094V57.8906C130.625 58.776 130.635 59.5521 130.656 60.2188C130.677 60.875 130.708 61.4427 130.75 61.9219C130.792 62.401 130.839 62.8021 130.891 63.125C130.943 63.4479 131 63.7188 131.062 63.9375V64H127.453V63.9375C127.516 63.7188 127.573 63.4479 127.625 63.125C127.688 62.8021 127.734 62.401 127.766 61.9219C127.807 61.4427 127.839 60.875 127.859 60.2188C127.891 59.5521 127.906 58.776 127.906 57.8906V54.1094C127.906 53.224 127.891 52.4531 127.859 51.7969C127.839 51.1302 127.807 50.5573 127.766 50.0781C127.734 49.599 127.688 49.1979 127.625 48.875C127.573 48.5521 127.516 48.2812 127.453 48.0625V48H131.062V48.0625C130.979 48.3229 130.911 48.6562 130.859 49.0625C130.818 49.4583 130.771 49.9792 130.719 50.625C131.146 50.2708 131.604 49.9167 132.094 49.5625C132.594 49.2083 133.109 48.8958 133.641 48.625C134.172 48.3438 134.714 48.1198 135.266 47.9531C135.818 47.776 136.359 47.6875 136.891 47.6875C137.703 47.6875 138.391 47.8281 138.953 48.1094C139.526 48.3906 139.99 48.7604 140.344 49.2188C140.708 49.6771 140.969 50.2031 141.125 50.7969C141.292 51.3802 141.375 51.974 141.375 52.5781V57.8906C141.375 58.776 141.385 59.5521 141.406 60.2188C141.427 60.875 141.458 61.4427 141.5 61.9219C141.542 62.401 141.589 62.8021 141.641 63.125C141.693 63.4479 141.75 63.7188 141.812 63.9375V64H138.203V63.9375C138.266 63.7188 138.323 63.4479 138.375 63.125C138.438 62.8021 138.484 62.401 138.516 61.9219C138.557 61.4427 138.589 60.875 138.609 60.2188C138.641 59.5521 138.656 58.776 138.656 57.8906V53.4688ZM151.109 63.8125L145.609 51.7812C145.411 51.3229 145.198 50.8854 144.969 50.4688C144.74 50.0417 144.521 49.6615 144.312 49.3281C144.115 48.9948 143.938 48.7188 143.781 48.5C143.625 48.2708 143.521 48.125 143.469 48.0625V48H147.562V48.0625C147.542 48.1146 147.526 48.1927 147.516 48.2969C147.505 48.401 147.5 48.4948 147.5 48.5781C147.5 48.901 147.547 49.2604 147.641 49.6562C147.745 50.0417 147.932 50.526 148.203 51.1094L152.516 60.4844L156.453 51.2344C156.62 50.849 156.786 50.4271 156.953 49.9688C157.13 49.5104 157.219 49.0469 157.219 48.5781C157.219 48.4427 157.208 48.3333 157.188 48.25C157.167 48.1562 157.146 48.0938 157.125 48.0625V48H159.938V48.0625C159.75 48.2604 159.51 48.6146 159.219 49.125C158.938 49.625 158.635 50.2552 158.312 51.0156L150.859 68.7656C150.693 69.151 150.521 69.5729 150.344 70.0312C150.177 70.4896 150.094 70.9531 150.094 71.4219C150.094 71.5573 150.104 71.6667 150.125 71.75C150.146 71.8438 150.167 71.9062 150.188 71.9375V72H147.266V71.9375C147.464 71.7396 147.703 71.3906 147.984 70.8906C148.276 70.401 148.583 69.7812 148.906 69.0312L151.109 63.8125ZM159.719 62.625C159.719 62.3958 159.76 62.1823 159.844 61.9844C159.938 61.776 160.057 61.599 160.203 61.4531C160.359 61.2969 160.536 61.1771 160.734 61.0938C160.943 61 161.161 60.9531 161.391 60.9531C161.63 60.9531 161.849 61.0052 162.047 61.1094C162.255 61.2031 162.432 61.3385 162.578 61.5156C162.734 61.6823 162.854 61.8802 162.938 62.1094C163.031 62.3385 163.078 62.5833 163.078 62.8438C163.078 63.25 162.984 63.6927 162.797 64.1719C162.62 64.651 162.38 65.1406 162.078 65.6406C161.786 66.1406 161.453 66.6302 161.078 67.1094C160.714 67.599 160.339 68.0573 159.953 68.4844L159.531 68.125C160.052 67.5104 160.469 66.901 160.781 66.2969C161.094 65.6927 161.276 65.0312 161.328 64.3125C160.87 64.2917 160.484 64.125 160.172 63.8125C159.87 63.5 159.719 63.1042 159.719 62.625ZM179.812 62.625C181.042 62.625 182.172 62.5729 183.203 62.4688C184.234 62.3646 185.135 62.2448 185.906 62.1094C186.802 61.9635 187.62 61.7917 188.359 61.5938L187.906 64.125C187.781 64.1146 187.594 64.1042 187.344 64.0938C187.094 64.0833 186.812 64.0729 186.5 64.0625C186.198 64.0521 185.875 64.0417 185.531 64.0312C185.198 64.0312 184.88 64.026 184.578 64.0156C184.276 64.0156 184.005 64.0104 183.766 64C183.536 64 183.37 64 183.266 64H176.516V63.9375C176.578 63.7188 176.635 63.4479 176.688 63.125C176.75 62.8021 176.802 62.401 176.844 61.9219C176.885 61.4427 176.917 60.875 176.938 60.2188C176.958 59.5521 176.969 58.776 176.969 57.8906V47.7188C176.969 46.8333 176.958 46.0625 176.938 45.4062C176.917 44.7396 176.885 44.1667 176.844 43.6875C176.802 43.1979 176.75 42.7917 176.688 42.4688C176.635 42.1458 176.578 41.875 176.516 41.6562V41.5938H180.266V41.6562C180.203 41.875 180.141 42.1458 180.078 42.4688C180.026 42.7917 179.979 43.1979 179.938 43.6875C179.906 44.1667 179.875 44.7396 179.844 45.4062C179.823 46.0625 179.812 46.8333 179.812 47.7188V62.625ZM194.531 62.625C195.76 62.625 196.891 62.5729 197.922 62.4688C198.953 62.3646 199.854 62.2448 200.625 62.1094C201.521 61.9635 202.339 61.7917 203.078 61.5938L202.625 64.125C202.5 64.1146 202.312 64.1042 202.062 64.0938C201.812 64.0833 201.531 64.0729 201.219 64.0625C200.917 64.0521 200.594 64.0417 200.25 64.0312C199.917 64.0312 199.599 64.026 199.297 64.0156C198.995 64.0156 198.724 64.0104 198.484 64C198.255 64 198.089 64 197.984 64H191.234V63.9375C191.297 63.7188 191.354 63.4479 191.406 63.125C191.469 62.8021 191.521 62.401 191.562 61.9219C191.604 61.4427 191.635 60.875 191.656 60.2188C191.677 59.5521 191.688 58.776 191.688 57.8906V47.7188C191.688 46.8333 191.677 46.0625 191.656 45.4062C191.635 44.7396 191.604 44.1667 191.562 43.6875C191.521 43.1979 191.469 42.7917 191.406 42.4688C191.354 42.1458 191.297 41.875 191.234 41.6562V41.5938H194.984V41.6562C194.922 41.875 194.859 42.1458 194.797 42.4688C194.745 42.7917 194.698 43.1979 194.656 43.6875C194.625 44.1667 194.594 44.7396 194.562 45.4062C194.542 46.0625 194.531 46.8333 194.531 47.7188V62.625ZM224.078 45.0312L223.938 45.0938C223.125 44.3438 222.146 43.7448 221 43.2969C219.865 42.849 218.615 42.625 217.25 42.625C215.938 42.625 214.734 42.8333 213.641 43.25C212.547 43.6562 211.604 44.25 210.812 45.0312C210.031 45.8125 209.422 46.7708 208.984 47.9062C208.547 49.0417 208.328 50.3333 208.328 51.7812C208.328 53.375 208.536 54.8646 208.953 56.25C209.37 57.625 209.99 58.8177 210.812 59.8281C211.635 60.8385 212.661 61.6354 213.891 62.2188C215.13 62.7917 216.573 63.0781 218.219 63.0781C218.812 63.0781 219.406 63.0156 220 62.8906C220.594 62.7656 221.161 62.5833 221.703 62.3438C222.255 62.0938 222.771 61.7969 223.25 61.4531C223.74 61.099 224.182 60.6979 224.578 60.25L224.75 60.3594L223.5 63.5469C222.719 63.849 221.854 64.0781 220.906 64.2344C219.969 64.401 219.021 64.4844 218.062 64.4844C216.135 64.4844 214.37 64.2083 212.766 63.6562C211.172 63.0938 209.797 62.3021 208.641 61.2812C207.495 60.2604 206.599 59.0365 205.953 57.6094C205.318 56.1719 205 54.5781 205 52.8281C205 51.8385 205.125 50.8646 205.375 49.9062C205.635 48.9479 206.01 48.0365 206.5 47.1719C206.99 46.3073 207.594 45.5156 208.312 44.7969C209.031 44.0677 209.849 43.4375 210.766 42.9062C211.693 42.375 212.708 41.9635 213.812 41.6719C214.927 41.3698 216.13 41.2188 217.422 41.2188C219.432 41.2188 221.297 41.526 223.016 42.1406L224.078 45.0312ZM226.969 62.625C226.969 62.3958 227.01 62.1823 227.094 61.9844C227.188 61.776 227.307 61.599 227.453 61.4531C227.609 61.2969 227.786 61.1771 227.984 61.0938C228.193 61 228.411 60.9531 228.641 60.9531C228.88 60.9531 229.099 61 229.297 61.0938C229.505 61.1771 229.682 61.2969 229.828 61.4531C229.984 61.599 230.104 61.776 230.188 61.9844C230.281 62.1823 230.328 62.3958 230.328 62.625C230.328 63.1042 230.167 63.5052 229.844 63.8281C229.521 64.151 229.12 64.3125 228.641 64.3125C228.411 64.3125 228.193 64.2656 227.984 64.1719C227.786 64.0885 227.609 63.974 227.453 63.8281C227.307 63.6719 227.188 63.4948 227.094 63.2969C227.01 63.0885 226.969 62.8646 226.969 62.625Z" fill="white"/>
</svg>
