<svg width="200" height="77" viewBox="0 0 200 77" fill="none" xmlns="http://www.w3.org/2000/svg">
                        <path d="M91.5048 53.5887H85.3789V23.1516H91.5048V53.5887Z" fill="white"/>
                        <path d="M81.9727 53.5887H75.0208C72.019 49.1868 67.7005 44.0461 63.2986 39.4387C64.6968 39.7683 66.0542 39.8498 67.4523 39.8498C70.9486 39.8498 73.0468 37.5053 73.0468 33.9683C73.0468 30.4312 70.8264 28.0849 67.4523 28.0849H61.6523V53.5868H55.6875V23.1516H68.1097C74.7727 23.1516 79.256 27.2238 79.256 33.3516C79.256 37.9998 76.7468 41.2479 73.3338 42.6887C76.0079 45.609 79.1338 49.5164 81.9708 53.5887H81.9727Z" fill="white"/>
                        <path d="M120.009 33.3516C120.009 39.7275 115.607 43.9627 109.027 43.9627H102.816V53.5868H96.8516V23.1516H109.274C115.69 23.1516 120.009 27.2238 120.009 33.3516ZM113.798 33.5572C113.798 30.2664 111.783 28.0868 108.616 28.0868H102.816V38.9868H108.616C111.783 38.9868 113.798 36.8479 113.798 33.5572Z" fill="white"/>
                        <path d="M146.196 33.3516C146.196 39.7275 141.795 43.9627 135.215 43.9627H129.004V53.5868H123.039V23.1516H135.461C141.878 23.1516 146.196 27.2238 146.196 33.3516ZM139.985 33.5572C139.985 30.2664 137.971 28.0868 134.804 28.0868H129.004V38.9868H134.804C137.971 38.9868 139.985 36.8479 139.985 33.5572Z" fill="white"/>
                        <path d="M158.985 41.0832L157.504 40.7128C152.115 39.3554 148.496 37.8332 148.496 32.0758C148.496 26.3184 152.692 22.7388 159.766 22.7388C162.933 22.7388 166.47 23.398 169.309 24.5906V29.074C166.224 28.0462 163.263 27.5517 161.124 27.5517C156.641 27.5517 154.542 28.8258 154.542 31.048C154.542 33.4332 157.092 34.0091 160.259 34.8332L161.698 35.161C166.963 36.4777 170.992 38.7388 170.992 44.6628C170.992 50.5869 166.839 53.9999 159.887 53.9999C156.639 53.9999 152.361 53.2591 149.687 51.8202V47.2962C152.731 48.6536 156.02 49.1888 158.283 49.1888C162.848 49.1888 164.987 47.7906 164.987 45.4462C164.987 42.9369 162.396 41.9499 158.981 41.0851L158.985 41.0832Z" fill="white"/>
                        <path d="M50.4655 53.7648V35.9833H38.0063V40.9204H44.5044V48.1592C42.7766 48.7352 40.9266 49.0648 39.2396 49.0648C32.8637 49.0648 29.3266 44.787 29.3266 38.5352C29.3266 31.8722 33.4803 27.6778 40.5544 27.6778C42.7748 27.6778 46.4766 28.2537 48.6155 29.2V24.5926C45.9414 23.4833 41.9525 22.7407 38.7025 22.7407C29.4062 22.7407 23.1562 28.9111 23.1562 38.5352C23.1562 48.1592 28.8729 54.0018 37.7988 54.0018C42.6211 54.0018 45.3544 52.5241 48.3007 51.1148C48.5174 51.2833 50.3025 53.6315 50.4674 53.7963C50.4674 53.7926 50.4674 53.7889 50.4674 53.7852V53.7648H50.4655Z" fill="white"/>
                        <path d="M176.847 26.9572C176.847 28.5794 175.739 29.6591 174.089 29.6591C172.439 29.6591 171.332 28.5776 171.332 26.9572C171.332 25.3369 172.441 24.2554 174.089 24.2554C175.738 24.2554 176.847 25.3369 176.847 26.9572ZM176.473 26.9572C176.473 25.5165 175.515 24.5609 174.089 24.5609C172.664 24.5609 171.706 25.5165 171.706 26.9572C171.706 28.398 172.662 29.3554 174.089 29.3554C175.517 29.3554 176.473 28.3998 176.473 26.9572ZM175.376 28.4535H174.975C174.56 27.9961 174.075 27.498 173.589 27.0683H174.13C174.545 27.0683 174.81 26.7906 174.81 26.4035C174.81 26.0165 174.532 25.7387 174.13 25.7387H173.395V28.4535H173.062V25.4609H174.171C174.767 25.4609 175.154 25.835 175.154 26.3887C175.154 26.9424 174.752 27.3035 174.239 27.3035C174.601 27.622 174.988 28.0239 175.376 28.4535Z" fill="white"/>
                        </svg>