<svg width="16" height="16" viewBox="0 0 16 16" fill="none" xmlns="http://www.w3.org/2000/svg">
<path fill-rule="evenodd" clip-rule="evenodd" d="M2.34375 13.6562C0.84375 12.1562 0 10.1219 0 8C0 5.87813 0.84375 3.84375 2.34375 2.34375C3.84375 0.84375 5.87813 0 8 0C10.1219 0 12.1562 0.84375 13.6562 2.34375C15.1562 3.84375 16 5.87813 16 8C16 10.1219 15.1562 12.1562 13.6562 13.6562C12.1562 15.1562 10.1219 16 8 16C5.87813 16 3.84375 15.1562 2.34375 13.6562ZM11.5281 6.52813C11.8219 6.2375 11.8188 5.7625 11.5281 5.46875C11.2375 5.175 10.7625 5.175 10.4688 5.46875L7 8.94063L5.53125 7.47188C5.24062 7.17812 4.76562 7.18125 4.47188 7.47188C4.17812 7.7625 4.17812 8.2375 4.47188 8.53125L6.47188 10.5312C6.7625 10.825 7.2375 10.825 7.53125 10.5312L11.5312 6.53125L11.5281 6.52813Z" fill="#37C8AE"/>
</svg>
